<svg width="40" height="40" viewBox="0 0 40 40" fill="none" xmlns="http://www.w3.org/2000/svg">
<circle cx="20" cy="20" r="20" fill="#242424"/>
<path d="M23.1016 11.9936C23.8377 11.0867 24.3328 9.82485 24.197 8.57178C23.1411 8.61559 21.8573 9.28594 21.095 10.1929C20.4159 10.9991 19.82 12.2784 19.9777 13.5096C21.1607 13.606 22.3656 12.8962 23.1016 11.9936Z" fill="white"/>
<path d="M25.7522 19.9591C25.7434 19.1003 25.9581 18.3862 26.2604 17.8035C26.9088 16.546 27.9604 15.9239 28.0261 15.8757C26.7862 14.0355 24.8584 13.7814 24.1749 13.7551C22.5363 13.5842 20.9765 14.7365 20.144 14.7365C19.3116 14.7365 18.0278 13.777 16.6696 13.8033C14.882 13.8296 13.2346 14.8592 12.3145 16.489C12.0297 16.9929 11.8194 17.5362 11.6749 18.1058C10.8906 21.2165 12.1174 25.0371 13.6465 27.2891C14.5315 28.5904 15.583 30.0537 16.9675 30.0012C18.3039 29.9486 18.8033 29.1249 20.4157 29.1249C22.028 29.1249 22.4837 30.0012 23.8945 29.9749C25.3272 29.9486 26.2385 28.6473 27.1148 27.3417C28.1312 25.8301 28.5475 24.3667 28.5738 24.2922C28.5475 24.2791 25.7828 23.2013 25.7522 19.9591Z" fill="white"/>
</svg>
