<svg width="24" height="24" viewBox="0 0 24 24" fill="none" xmlns="http://www.w3.org/2000/svg">
<mask id="path-1-inside-1_732_7261" fill="white">
<path fill-rule="evenodd" clip-rule="evenodd" d="M15.1553 3C19.5741 3 23.1562 6.58209 23.1562 11.0008C23.1562 14.3987 21.038 17.3019 18.0501 18.4619L19.5473 21.2068C19.8823 21.821 19.2084 22.4926 18.5954 22.1554L12.8614 19.0017H9.00084C4.5821 19.0017 1 15.4196 1 11.0008C1 6.58209 4.5821 3 9.00084 3H15.1553Z"/>
</mask>
<path fill-rule="evenodd" clip-rule="evenodd" d="M15.1553 3C19.5741 3 23.1562 6.58209 23.1562 11.0008C23.1562 14.3987 21.038 17.3019 18.0501 18.4619L19.5473 21.2068C19.8823 21.821 19.2084 22.4926 18.5954 22.1554L12.8614 19.0017H9.00084C4.5821 19.0017 1 15.4196 1 11.0008C1 6.58209 4.5821 3 9.00084 3H15.1553Z" fill="#F0FBFF"/>
<path d="M18.0501 18.4619L17.6881 17.5297C17.42 17.6338 17.2097 17.8484 17.1109 18.1185C17.0121 18.3887 17.0344 18.6883 17.1722 18.9408L18.0501 18.4619ZM19.5473 21.2068L18.6694 21.6857L19.5473 21.2068ZM18.5954 22.1554L18.1135 23.0316L18.1135 23.0316L18.5954 22.1554ZM12.8614 19.0017L13.3433 18.1255C13.1957 18.0443 13.0299 18.0017 12.8614 18.0017V19.0017ZM24.1562 11.0008C24.1562 6.02981 20.1263 2 15.1553 2V4C19.0218 4 22.1562 7.13438 22.1562 11.0008H24.1562ZM18.412 19.3941C21.7717 18.0897 24.1562 14.825 24.1562 11.0008H22.1562C22.1562 13.9724 20.3043 16.514 17.6881 17.5297L18.412 19.3941ZM20.4252 20.728L18.928 17.9831L17.1722 18.9408L18.6694 21.6857L20.4252 20.728ZM18.1135 23.0316C19.6023 23.8504 21.2388 22.2196 20.4252 20.728L18.6694 21.6857C18.644 21.6392 18.6275 21.5656 18.6416 21.4863C18.6542 21.4157 18.6866 21.3638 18.721 21.3295C18.7554 21.2952 18.8074 21.263 18.8781 21.2507C18.9574 21.2368 19.0309 21.2537 19.0773 21.2792L18.1135 23.0316ZM12.3795 19.8779L18.1135 23.0316L19.0773 21.2792L13.3433 18.1255L12.3795 19.8779ZM9.00084 20.0017H12.8614V18.0017H9.00084V20.0017ZM0 11.0008C0 15.9719 4.02981 20.0017 9.00084 20.0017V18.0017C5.13438 18.0017 2 14.8673 2 11.0008H0ZM9.00084 2C4.02982 2 0 6.02981 0 11.0008H2C2 7.13438 5.13439 4 9.00084 4V2ZM15.1553 2H9.00084V4H15.1553V2Z" fill="#9FDBF0" mask="url(#path-1-inside-1_732_7261)"/>
<circle cx="7" cy="11" r="1" fill="#9FDBF0"/>
<circle cx="12" cy="11" r="1" fill="#9FDBF0"/>
<circle cx="17" cy="11" r="1" fill="#9FDBF0"/>
</svg>
