<svg width="24" height="24" viewBox="0 0 24 24" fill="none" xmlns="http://www.w3.org/2000/svg">
<path d="M3.46912 5.65727L3.37507 5.1662L3.01495 5.23517L2.97248 5.59935L3.46912 5.65727ZM3.46912 5.65727C2.97248 5.59935 2.97247 5.59951 2.97245 5.59969L2.97239 5.60013L2.97226 5.60132L2.97185 5.60491L2.97054 5.61692L2.96619 5.65969C2.96264 5.69632 2.9579 5.74897 2.95284 5.81599C2.94273 5.94995 2.93129 6.14167 2.92541 6.37789C2.91368 6.84945 2.92397 7.50299 3.01272 8.2311C3.18788 9.66819 3.67982 11.4882 5.01132 12.7257C6.26924 13.8948 7.71431 14.659 9.05283 14.9313C10.3814 15.2016 11.6942 14.9974 12.5398 14.0876C13.3853 13.1778 13.4931 11.8536 13.1264 10.5483C12.757 9.23329 11.8892 7.84794 10.6313 6.67881C9.29982 5.44131 7.44876 5.08368 6.00272 5.014C5.27006 4.9787 4.61752 5.0162 4.14808 5.06236C3.91292 5.08548 3.72255 5.1109 3.58968 5.13078C3.52322 5.14072 3.47106 5.14929 3.43478 5.15551L3.39244 5.16297L3.38056 5.16516L3.37701 5.16583L3.37583 5.16605L3.3754 5.16613C3.37522 5.16617 3.37507 5.1662 3.46912 5.65727Z" fill="white" stroke="#6C788F"/>
<path d="M20.7086 5.65727L20.8027 5.1662L21.1628 5.23517L21.2052 5.59935L20.7086 5.65727ZM20.7086 5.65727C21.2052 5.59935 21.2053 5.59951 21.2053 5.59969L21.2053 5.60013L21.2055 5.60132L21.2059 5.60491L21.2072 5.61692L21.2115 5.65969C21.2151 5.69632 21.2198 5.74897 21.2249 5.81599C21.235 5.94995 21.2464 6.14167 21.2523 6.37789C21.2641 6.84945 21.2538 7.50299 21.165 8.2311C20.9899 9.66819 20.4979 11.4882 19.1664 12.7257C17.9085 13.8948 16.4634 14.659 15.1249 14.9313C13.7963 15.2016 12.4836 14.9974 11.638 14.0876C10.7924 13.1778 10.6847 11.8536 11.0513 10.5483C11.4207 9.23329 12.2885 7.84794 13.5464 6.67881C14.8779 5.44131 16.729 5.08368 18.175 5.014C18.9077 4.9787 19.5602 5.0162 20.0297 5.06236C20.2648 5.08548 20.4552 5.1109 20.5881 5.13078C20.6545 5.14072 20.7067 5.14929 20.743 5.15551L20.7853 5.16297L20.7972 5.16516L20.8007 5.16583L20.8019 5.16605L20.8023 5.16613C20.8025 5.16617 20.8027 5.1662 20.7086 5.65727Z" fill="white" stroke="#6C788F"/>
<path d="M15.9251 9.94873C15.451 10.7215 13.1329 13.0396 11.5874 13.8124" stroke="#6C788F" stroke-linecap="round"/>
<path d="M12 15C12 17 13 21 17 21" stroke="#6C788F" stroke-linecap="round"/>
</svg>
