<svg width="128" height="180" viewBox="0 0 128 180" fill="none" xmlns="http://www.w3.org/2000/svg">
<g clip-path="url(#clip0_1509_34858)">
<path d="M107.2 72.3999H20.48C16.9012 72.3999 14 75.3011 14 78.8799V85.3599C14 88.9387 16.9012 91.8399 20.48 91.8399H107.2C110.779 91.8399 113.68 88.9387 113.68 85.3599V78.8799C113.68 75.3011 110.779 72.3999 107.2 72.3999Z" fill="#9D775B"/>
<path d="M24.98 99.2201C24.72 97.9801 25.66 96.8101 26.93 96.8101H100.76C102.03 96.8101 102.97 97.9801 102.71 99.2201L92.91 145.52C92.03 149.67 88.3699 152.63 84.1299 152.63H43.5499C39.3099 152.63 35.65 149.66 34.77 145.52L24.97 99.2201H24.98Z" fill="#795B45"/>
<path fill-rule="evenodd" clip-rule="evenodd" d="M60.6601 36.9999C60.2401 36.4999 59.8001 36.0199 59.3301 35.5499C48.5801 24.7899 28.6901 27.2399 28.6901 27.2399C28.6901 27.2399 26.2401 47.1199 37.0001 57.8799C41.9601 62.8399 48.8501 64.9899 54.8501 65.8699C54.8501 65.8299 54.8501 65.7899 54.8401 65.7399C54.7901 65.0999 54.7301 64.1899 54.6901 63.0699C54.6201 60.8499 54.6601 57.7599 55.0601 54.2899C55.6501 49.1599 57.1101 42.7099 60.6601 36.9999V36.9999ZM59.1701 66.3199C59.4801 66.2799 59.8201 66.2399 60.1901 66.1899L59.1701 66.3199Z" fill="#B3EFE8"/>
<path d="M99.0099 27.2399C99.0099 27.2399 79.1299 24.7899 68.3699 35.5499C60.4099 43.5099 59.6799 56.4699 59.8399 62.6699L75.2199 47.2899C76.2899 46.2199 78.0299 46.2199 79.0999 47.2899C80.1699 48.3599 80.1699 50.0999 79.0999 51.1699L63.8399 66.4299C70.1299 66.5599 82.8399 65.7499 90.6999 57.8999C101.45 47.1199 99.0099 27.2399 99.0099 27.2399Z" fill="#2CD0BC"/>
<path d="M79.0998 47.28C78.0298 46.21 76.2898 46.21 75.2198 47.28L59.8398 62.66C59.8998 64.83 60.0598 66.18 60.0598 66.18C60.0598 66.18 61.5198 66.36 63.8398 66.41L79.0998 51.15C80.1698 50.08 80.1698 48.34 79.0998 47.27V47.28Z" fill="white"/>
</g>
<defs>
<clipPath id="clip0_1509_34858">
<rect width="99.68" height="125.64" fill="white" transform="translate(14 27)"/>
</clipPath>
</defs>
</svg>