<svg
  width="12"
  height="11"
  viewBox="0 0 12 11"
  fill="none"
  xmlns="http://www.w3.org/2000/svg"
>
<path
    d="M5.71978 0.463525C5.86946 0.00286925 6.52116 0.00286996 6.67084 0.463525L7.65465 3.49139C7.72159 3.6974 7.91357 3.83688 8.13018 3.83688H11.3139C11.7982 3.83688 11.9996 4.45669 11.6078 4.74139L9.0321 6.61271C8.85686 6.74003 8.78353 6.96572 8.85047 7.17173L9.83428 10.1996C9.98396 10.6602 9.45672 11.0433 9.06486 10.7586L6.4892 8.88729C6.31396 8.75997 6.07666 8.75997 5.90142 8.88729L3.32576 10.7586C2.93391 11.0433 2.40667 10.6602 2.55634 10.1996L3.54016 7.17173C3.60709 6.96572 3.53376 6.74003 3.35852 6.61271L0.782865 4.74139C0.391008 4.45669 0.592397 3.83688 1.07676 3.83688H4.26044C4.47706 3.83688 4.66903 3.6974 4.73597 3.49139L5.71978 0.463525Z"
    fill="#000"
  />
</svg>
