<svg width="20" height="20" viewBox="0 0 20 20" fill="none" xmlns="http://www.w3.org/2000/svg">
<path d="M13.1363 2.12239L12.7613 2.7719V2.7719L13.1363 2.12239ZM12.0093 2.42436L12.6589 2.79936L12.0093 2.42436ZM15.3296 3.38867L15.7046 2.73915V2.73915L15.3296 3.38867ZM15.6316 4.51564L14.982 4.14064V4.14064L15.6316 4.51564ZM15.0377 5.54421L14.3882 5.16921L14.1169 5.63908L14.4783 6.04377L15.0377 5.54421ZM16.4034 7.90863L15.6909 8.14282L15.8604 8.65863H16.4034V7.90863ZM16.4034 12.0912V11.3412H15.8604L15.6909 11.857L16.4034 12.0912ZM15.118 14.3641L14.5496 13.8748L14.2023 14.2781L14.4685 14.7391L15.118 14.3641ZM15.7647 15.4843L16.4142 15.1093L15.7647 15.4843ZM15.4627 16.6112L15.8377 17.2607L15.4627 16.6112ZM13.2695 17.8775L12.8945 17.228L13.2695 17.8775ZM12.1425 17.5755L12.792 17.2005V17.2005L12.1425 17.5755ZM11.5361 16.5252L12.1856 16.1502L11.909 15.6711L11.3696 15.7939L11.5361 16.5252ZM8.68169 16.5532L8.83364 15.8187L8.30307 15.7089L8.03217 16.1782L8.68169 16.5532ZM8.09142 17.5755L7.4419 17.2005L7.4419 17.2005L8.09142 17.5755ZM6.96445 17.8775L7.33945 17.228L6.96445 17.8775ZM4.77118 16.6112L4.39618 17.2607H4.39618L4.77118 16.6112ZM4.46921 15.4843L5.11873 15.8593L4.46921 15.4843ZM5.05848 14.4636L5.708 14.8386L5.97973 14.368L5.6171 13.9632L5.05848 14.4636ZM3.68567 12.0912L4.39817 11.857L4.22863 11.3412H3.68567V12.0912ZM3.68567 7.90863V8.65863H4.22863L4.39817 8.14282L3.68567 7.90863ZM5.13999 5.44688L5.68954 5.95727L6.06642 5.55149L5.78951 5.07188L5.13999 5.44688ZM4.60234 4.51564L5.25186 4.14064V4.14064L4.60234 4.51564ZM4.90432 3.38867L4.52932 2.73915V2.73915L4.90432 3.38867ZM7.09758 2.12239L7.47258 2.7719V2.7719L7.09758 2.12239ZM8.22456 2.42436L7.57504 2.79936L8.22456 2.42436ZM8.80118 3.4231L8.15166 3.7981L8.41738 4.25834L8.93967 4.1602L8.80118 3.4231ZM11.4178 3.44886L11.2647 4.18306L11.796 4.29387L12.0674 3.82386L11.4178 3.44886ZM13.5113 1.47287C12.758 1.03794 11.7948 1.29605 11.3598 2.04936L12.6589 2.79936C12.6796 2.76348 12.7254 2.75119 12.7613 2.7719L13.5113 1.47287ZM15.7046 2.73915L13.5113 1.47287L12.7613 2.7719L14.9546 4.03819L15.7046 2.73915ZM16.2811 4.89064C16.716 4.13733 16.4579 3.17408 15.7046 2.73915L14.9546 4.03819C14.9905 4.0589 15.0027 4.10477 14.982 4.14064L16.2811 4.89064ZM15.6872 5.91921L16.2811 4.89064L14.982 4.14064L14.3882 5.16921L15.6872 5.91921ZM17.1159 7.67445C16.7926 6.6908 16.2702 5.7984 15.5971 5.04466L14.4783 6.04377C15.0166 6.64656 15.4333 7.35907 15.6909 8.14282L17.1159 7.67445ZM17.5806 7.15863H16.4034V8.65863H17.5806V7.15863ZM19.1556 8.73363C19.1556 7.86378 18.4504 7.15863 17.5806 7.15863V8.65863C17.622 8.65863 17.6556 8.69221 17.6556 8.73363H19.1556ZM19.1556 11.2662V8.73363H17.6556V11.2662H19.1556ZM17.5806 12.8412C18.4504 12.8412 19.1556 12.1361 19.1556 11.2662H17.6556C17.6556 11.3076 17.622 11.3412 17.5806 11.3412V12.8412ZM16.4034 12.8412H17.5806V11.3412H16.4034V12.8412ZM15.6863 14.8535C16.3164 14.1216 16.807 13.2652 17.1159 12.3254L15.6909 11.857C15.4448 12.6058 15.0535 13.2896 14.5496 13.8748L15.6863 14.8535ZM16.4142 15.1093L15.7675 13.9891L14.4685 14.7391L15.1152 15.8593L16.4142 15.1093ZM15.8377 17.2607C16.591 16.8258 16.8491 15.8626 16.4142 15.1093L15.1152 15.8593C15.1359 15.8951 15.1236 15.941 15.0877 15.9617L15.8377 17.2607ZM13.6445 18.527L15.8377 17.2607L15.0877 15.9617L12.8945 17.228L13.6445 18.527ZM11.493 17.9505C11.9279 18.7038 12.8911 18.962 13.6445 18.527L12.8945 17.228C12.8586 17.2487 12.8127 17.2364 12.792 17.2005L11.493 17.9505ZM10.8866 16.9002L11.493 17.9505L12.792 17.2005L12.1856 16.1502L10.8866 16.9002ZM10.0445 17.442C10.6136 17.442 11.1687 17.378 11.7025 17.2565L11.3696 15.7939C10.9442 15.8907 10.5008 15.942 10.0445 15.942V17.442ZM8.52974 17.2876C9.01946 17.3889 9.52619 17.442 10.0445 17.442V15.942C9.62888 15.942 9.22396 15.8995 8.83364 15.8187L8.52974 17.2876ZM8.74094 17.9505L9.33121 16.9282L8.03217 16.1782L7.4419 17.2005L8.74094 17.9505ZM6.58945 18.527C7.34276 18.962 8.30602 18.7038 8.74094 17.9505L7.4419 17.2005C7.42119 17.2364 7.37532 17.2487 7.33945 17.228L6.58945 18.527ZM4.39618 17.2607L6.58945 18.527L7.33945 17.228L5.14618 15.9617L4.39618 17.2607ZM3.81969 15.1093C3.38477 15.8626 3.64287 16.8258 4.39618 17.2607L5.14618 15.9617C5.11031 15.941 5.09802 15.8951 5.11873 15.8593L3.81969 15.1093ZM4.40896 14.0886L3.81969 15.1093L5.11873 15.8593L5.708 14.8386L4.40896 14.0886ZM2.97317 12.3254C3.29774 13.3129 3.82295 14.2084 4.49986 14.964L5.6171 13.9632C5.07575 13.3589 4.65678 12.6438 4.39817 11.857L2.97317 12.3254ZM2.50029 12.8412H3.68567V11.3412H2.50029V12.8412ZM0.925293 11.2662C0.925293 12.136 1.63044 12.8412 2.50029 12.8412V11.3412C2.45887 11.3412 2.42529 11.3076 2.42529 11.2662H0.925293ZM0.925293 8.73363V11.2662H2.42529V8.73363H0.925293ZM2.50029 7.15863C1.63045 7.15863 0.925293 7.86378 0.925293 8.73363H2.42529C2.42529 8.69221 2.45887 8.65863 2.50029 8.65863V7.15863ZM3.68567 7.15863H2.50029V8.65863H3.68567V7.15863ZM4.59045 4.93648C3.86973 5.71248 3.31209 6.64332 2.97317 7.67445L4.39817 8.14282C4.66821 7.32124 5.11308 6.57794 5.68954 5.95727L4.59045 4.93648ZM3.95283 4.89064L4.49048 5.82188L5.78951 5.07188L5.25186 4.14064L3.95283 4.89064ZM4.52932 2.73915C3.776 3.17408 3.5179 4.13733 3.95283 4.89064L5.25186 4.14064C5.23115 4.10477 5.24344 4.0589 5.27932 4.03819L4.52932 2.73915ZM6.72258 1.47287L4.52932 2.73915L5.27932 4.03819L7.47258 2.7719L6.72258 1.47287ZM8.87407 2.04936C8.43915 1.29605 7.4759 1.03794 6.72258 1.47287L7.47258 2.7719C7.50846 2.75119 7.55433 2.76348 7.57504 2.79936L8.87407 2.04936ZM9.4507 3.0481L8.87407 2.04936L7.57504 2.79936L8.15166 3.7981L9.4507 3.0481ZM10.0445 2.55782C9.57298 2.55782 9.11101 2.60177 8.66269 2.686L8.93967 4.1602C9.29711 4.09305 9.66636 4.05782 10.0445 4.05782V2.55782ZM11.571 2.71466C11.0776 2.61177 10.567 2.55782 10.0445 2.55782V4.05782C10.4635 4.05782 10.8715 4.10106 11.2647 4.18306L11.571 2.71466ZM11.3598 2.04936L10.7683 3.07386L12.0674 3.82386L12.6589 2.79936L11.3598 2.04936ZM12.2276 9.99993C12.2276 11.2027 11.2526 12.1777 10.0498 12.1777V13.6777C12.081 13.6777 13.7276 12.0311 13.7276 9.99993H12.2276ZM10.0498 7.82213C11.2526 7.82213 12.2276 8.79716 12.2276 9.99993H13.7276C13.7276 7.96874 12.081 6.32213 10.0498 6.32213V7.82213ZM7.87204 9.99993C7.87204 8.79716 8.84708 7.82213 10.0498 7.82213V6.32213C8.01865 6.32213 6.37204 7.96874 6.37204 9.99993H7.87204ZM10.0498 12.1777C8.84708 12.1777 7.87204 11.2027 7.87204 9.99993H6.37204C6.37204 12.0311 8.01865 13.6777 10.0498 13.6777V12.1777Z" fill="black"/>
</svg>
