<svg width="132" height="31" viewBox="0 0 132 31" fill="none" xmlns="http://www.w3.org/2000/svg">
<path d="M114.827 16.3147H95.8211C95.4251 16.3147 95.0384 16.1523 94.7609 15.8697C94.4834 15.5871 94.3275 15.1983 94.3321 14.8016C94.3696 12.0909 95.4516 9.54724 97.3802 7.64066C99.3103 5.73252 101.867 4.68164 104.58 4.68164C110.23 4.68164 114.828 9.28647 114.828 14.9453V16.3147H114.827ZM97.1884 13.5774H111.969C111.325 10.0781 108.255 7.42049 104.579 7.42049C102.589 7.42049 100.715 8.1903 99.2994 9.59096C98.1894 10.6887 97.4628 12.0722 97.1868 13.5774H97.1884Z" fill="#272F3E" stroke="#272F3E" stroke-width="1.3" stroke-linejoin="round"/>
<path d="M104.58 25.209C98.9298 25.209 94.332 20.6041 94.332 14.9453H97.0651C97.0651 19.0957 100.436 22.4717 104.58 22.4717C106.314 22.4717 108.005 21.8658 109.343 20.7665L111.077 22.8823C109.251 24.3829 106.944 25.209 104.578 25.209H104.58Z" fill="#272F3E" stroke="#272F3E" stroke-width="1.3" stroke-linejoin="round"/>
<path d="M11.248 25.209C5.59779 25.209 1 20.6057 1 14.9453C1 9.28491 5.59779 4.68164 11.248 4.68164C16.8982 4.68164 21.4959 9.28647 21.4959 14.9453C21.4959 20.6041 16.8982 25.209 11.248 25.209ZM11.248 7.41893C7.10388 7.41893 3.7331 10.7949 3.7331 14.9453C3.7331 19.0957 7.10388 22.4717 11.248 22.4717C15.3921 22.4717 18.7628 19.0957 18.7628 14.9453C18.7628 10.7949 15.3921 7.41893 11.248 7.41893Z" fill="#272F3E" stroke="#272F3E" stroke-width="1.3" stroke-linejoin="round"/>
<path d="M3.7331 5.83203H1V30.0007H3.7331V5.83203Z" fill="#272F3E" stroke="#272F3E" stroke-width="1.3" stroke-linejoin="round"/>
<path d="M42.8027 25.209C37.1525 25.209 32.5547 20.6041 32.5547 14.9453C32.5547 9.28647 37.1525 4.68164 42.8027 4.68164C48.4528 4.68164 53.0506 9.28647 53.0506 14.9453C53.0506 20.6041 48.4528 25.209 42.8027 25.209ZM42.8027 7.41893C38.6586 7.41893 35.2878 10.7949 35.2878 14.9453C35.2878 19.0957 38.6586 22.4717 42.8027 22.4717C46.9468 22.4717 50.3175 19.0957 50.3175 14.9453C50.3175 10.7949 46.9468 7.41893 42.8027 7.41893Z" fill="#272F3E" stroke="#272F3E" stroke-width="1.3" stroke-linejoin="round"/>
<path d="M53.0495 5.83203H50.3164V25.1695H53.0495V5.83203Z" fill="#272F3E" stroke="#272F3E" stroke-width="1.3" stroke-linejoin="round"/>
<path d="M28.3933 1H25.6602V25.1687H28.3933V1Z" fill="#272F3E" stroke="#272F3E" stroke-width="1.3" stroke-linejoin="round"/>
<path d="M86.1103 5.71094H76.6055V8.44822H86.1103V5.71094Z" fill="#272F3E" stroke="#272F3E" stroke-width="1.3" stroke-linejoin="round"/>
<path d="M82.9011 1H80.168V25.1687H82.9011V1Z" fill="#272F3E" stroke="#272F3E" stroke-width="1.3" stroke-linejoin="round"/>
<path d="M60.6237 5.83203H57.8906V25.1695H60.6237V5.83203Z" fill="#272F3E" stroke="#272F3E" stroke-width="1.3" stroke-linejoin="round"/>
<path d="M74.626 25.1686H71.8929V15.2095C71.8929 11.4822 69.3656 8.44979 66.2583 8.44979C63.151 8.44979 60.6237 11.4822 60.6237 15.2095V25.1686H57.8906V15.2095C57.8906 9.97224 61.6449 5.71094 66.2583 5.71094C70.8717 5.71094 74.626 9.97224 74.626 15.2095V25.1686Z" fill="#272F3E" stroke="#272F3E" stroke-width="1.3" stroke-linejoin="round"/>
<path d="M121.007 5.83203H118.273V25.1695H121.007V5.83203Z" fill="#272F3E" stroke="#272F3E" stroke-width="1.3" stroke-linejoin="round"/>
<path d="M121.007 25.1686H118.273V15.2095C118.273 9.97223 122.028 5.71094 126.641 5.71094C128.033 5.71094 129.413 6.10912 130.632 6.86332L129.195 9.19149C128.397 8.69806 127.538 8.44666 126.641 8.44666C123.534 8.44666 121.007 11.4791 121.007 15.2063V25.1655V25.1686Z" fill="#272F3E" stroke="#272F3E" stroke-width="1.3" stroke-linejoin="round"/>
<path d="M89.6038 25.5837C91.208 25.5837 92.5084 24.2813 92.5084 22.6747C92.5084 21.0681 91.208 19.7656 89.6038 19.7656C87.9997 19.7656 86.6992 21.0681 86.6992 22.6747C86.6992 24.2813 87.9997 25.5837 89.6038 25.5837Z" fill="#2CD0BC"/>
</svg>
