<svg width="280" height="280" viewBox="0 0 280 280" fill="none" xmlns="http://www.w3.org/2000/svg">
<rect width="280" height="280" fill="white"/>
<path d="M70.589 123.131C61.3694 113.245 48.1696 109.129 38.8191 107.411C32.6197 106.266 27.2818 111.246 27.9866 117.511C29.0471 126.957 32.2399 140.409 41.4595 150.296C50.6792 160.182 63.8789 164.298 73.2295 166.016C79.4348 167.155 84.7727 162.175 84.068 155.91C83.0074 146.464 79.8147 133.012 70.595 123.125L70.589 123.131Z" fill="#84DCA9"/>
<path d="M54.5645 132.916C53.3352 131.872 51.4924 132.023 50.4485 133.252C49.4046 134.481 49.5549 136.324 50.7842 137.368L54.5645 132.916ZM52.6743 135.142C50.7842 137.368 50.7839 137.368 50.7838 137.368C50.7839 137.368 50.7838 137.368 50.7839 137.368C50.7842 137.368 50.7848 137.368 50.7856 137.369C50.7874 137.371 50.7905 137.373 50.7948 137.377C50.8034 137.384 50.8171 137.396 50.8358 137.412C50.8732 137.444 50.9304 137.493 51.007 137.559C51.16 137.692 51.3901 137.892 51.6919 138.157C52.2955 138.689 53.1858 139.483 54.3205 140.523C56.5901 142.602 59.8358 145.664 63.7191 149.573C71.4896 157.395 81.7933 168.592 91.933 182.091L96.6026 178.584C86.2616 164.817 75.7686 153.416 67.8624 145.457C63.9075 141.476 60.595 138.351 58.2659 136.217C57.1013 135.15 56.1822 134.33 55.5511 133.774C55.2356 133.496 54.9921 133.285 54.8259 133.141C54.7428 133.069 54.679 133.014 54.6352 132.977C54.6133 132.958 54.5964 132.944 54.5846 132.934C54.5787 132.928 54.5741 132.925 54.5707 132.922C54.569 132.92 54.5677 132.919 54.5666 132.918C54.5661 132.918 54.5656 132.917 54.5653 132.917C54.5648 132.917 54.5645 132.916 52.6743 135.142Z" fill="#76CBA9"/>
<path d="M103.97 140.472C111.447 129.21 123.795 122.989 132.739 119.765C138.667 117.621 144.748 121.659 145.078 127.955C145.578 137.448 144.629 151.241 137.152 162.503C129.675 173.765 117.326 179.986 108.383 183.21C102.448 185.35 96.3669 181.311 96.0369 175.015C95.5372 165.522 96.4854 151.729 103.963 140.467L103.97 140.472Z" fill="#84DCA9"/>
<path d="M121.379 147.503C122.421 146.272 124.263 146.119 125.494 147.161C126.725 148.203 126.879 150.045 125.837 151.276L121.379 147.503ZM123.608 149.39C125.837 151.276 125.837 151.276 125.837 151.276C125.837 151.276 125.837 151.276 125.837 151.276C125.837 151.276 125.836 151.277 125.836 151.278C125.834 151.279 125.831 151.282 125.828 151.287C125.821 151.295 125.809 151.309 125.793 151.328C125.762 151.366 125.713 151.424 125.648 151.501C125.519 151.657 125.325 151.892 125.071 152.203C124.562 152.827 123.814 153.755 122.864 154.967C120.966 157.39 118.265 160.941 115.074 165.433C108.688 174.422 100.356 187.154 92.5618 202.13L87.3812 199.434C95.3297 184.161 103.816 171.196 110.313 162.051C113.563 157.476 116.319 153.851 118.268 151.365C119.242 150.121 120.014 149.162 120.546 148.511C120.812 148.185 121.017 147.936 121.158 147.767C121.228 147.683 121.282 147.618 121.319 147.574C121.338 147.552 121.352 147.535 121.362 147.523C121.367 147.517 121.371 147.513 121.374 147.509C121.375 147.508 121.376 147.506 121.377 147.505C121.378 147.505 121.378 147.504 121.378 147.504C121.379 147.504 121.379 147.503 123.608 149.39Z" fill="#76CBA9"/>
<path d="M75.2463 89.714C77.7065 74.475 87.6063 62.1768 95.375 54.6059C100.531 49.5851 108.762 50.906 112.078 57.3037C117.078 66.9358 122.607 81.7226 120.147 96.9616C117.687 112.201 107.787 124.499 100.019 132.07C94.8627 137.091 86.6321 135.77 83.3155 129.372C78.3153 119.74 72.7862 104.953 75.2463 89.714Z" fill="#84DCA9"/>
<path d="M98.305 87.0684C98.305 87.0684 79.7311 132.501 96.7483 213.395" stroke="#76CBA9" stroke-width="5.84014" stroke-miterlimit="10" stroke-linecap="round"/>
<g clip-path="url(#clip0_1983_45156)">
<path d="M130.875 257.252L69.7454 262.288C66.2081 262.579 62.95 258.076 62.4692 252.239L48.2639 202.821C47.7823 196.976 50.2602 192.008 53.7975 191.717L135.066 185.022C138.603 184.73 141.861 189.234 142.342 195.071L136.415 246.147C136.897 251.992 134.419 256.96 130.882 257.251L130.875 257.252Z" fill="#C09259"/>
<path d="M147.632 168.516L38.6864 177.491C36.5619 177.666 35.0126 179.908 35.2259 182.498L36.5124 198.113C36.7257 200.703 38.621 202.661 40.7455 202.486L149.691 193.511C151.816 193.336 153.365 191.094 153.152 188.504L151.865 172.889C151.652 170.299 149.757 168.341 147.632 168.516Z" fill="#DDA664"/>
</g>
<path fill-rule="evenodd" clip-rule="evenodd" d="M210.128 63.7791C210.112 63.9939 210.098 64.2108 210.087 64.4297C210.076 64.6487 210.068 64.8671 210.062 65.085L210.128 63.7791ZM233.854 91.6289L234.299 82.853C242.73 83.1458 249.883 76.3182 250.33 67.4907C250.778 58.6631 244.186 54.4353 235.766 53.9357L236.211 45.1589C249.807 45.9235 260.475 52.7151 259.753 66.9483C259.031 81.1816 247.461 92.1792 233.854 91.6289Z" fill="#D9DFEA"/>
<path d="M135.997 49.9087L142.263 38.2199L175.197 51.0984L163.769 77.2102L135.997 49.9087Z" fill="#C4CBDA"/>
<rect x="136.927" y="31.3795" width="11.4137" height="20.2334" rx="3.11283" transform="rotate(28.7669 136.927 31.3795)" fill="#EBEBF4"/>
<path d="M175.072 32.4224C175.907 29.9234 178.482 28.4465 181.06 28.9881L237.78 40.9033C240.359 41.4449 242.122 43.8331 241.88 46.4566L236.321 106.784C236.036 109.872 233.123 112.023 230.088 111.385L159.741 96.6073C156.706 95.9697 154.905 92.829 155.887 89.8871L175.072 32.4224Z" fill="#D9DFEA"/>
<path d="M169.899 119.783C170.538 117.718 173.462 117.718 174.101 119.783L176.565 127.737C176.754 128.344 177.196 128.841 177.777 129.098L185.447 132.488C187.195 133.26 187.195 135.74 185.447 136.512L177.777 139.902C177.196 140.159 176.754 140.656 176.565 141.263L174.101 149.217C173.462 151.282 170.538 151.282 169.899 149.217L167.435 141.263C167.246 140.656 166.804 140.159 166.223 139.902L158.553 136.512C156.805 135.74 156.805 133.26 158.553 132.488L166.223 129.098C166.804 128.841 167.246 128.344 167.435 127.737L169.899 119.783Z" fill="#FFD873"/>
<path d="M56.3917 56.073C57.0163 53.9776 59.9837 53.9776 60.6083 56.073L62.1317 61.1835C62.3126 61.7904 62.7462 62.2899 63.3217 62.5543L68.6478 65.0008C70.3567 65.7858 70.3567 68.2142 68.6478 68.9992L63.3217 71.4457C62.7462 71.7101 62.3126 72.2096 62.1317 72.8165L60.6083 77.927C59.9837 80.0224 57.0163 80.0224 56.3917 77.927L54.8683 72.8165C54.6874 72.2096 54.2538 71.7101 53.6783 71.4457L48.3522 68.9992C46.6433 68.2142 46.6433 65.7858 48.3522 65.0008L53.6783 62.5543C54.2538 62.2899 54.6874 61.7904 54.8683 61.1835L56.3917 56.073Z" fill="#FFC773"/>
<path d="M43.9822 78.4145C44.2837 77.403 45.7163 77.403 46.0178 78.4145L46.7532 80.8817C46.8406 81.1747 47.0499 81.4158 47.3277 81.5434L49.899 82.7245C50.7239 83.1035 50.7239 84.2758 49.899 84.6548L47.3277 85.8359C47.0499 85.9635 46.8406 86.2046 46.7532 86.4976L46.0178 88.9648C45.7163 89.9763 44.2837 89.9763 43.9822 88.9648L43.2468 86.4976C43.1594 86.2046 42.9501 85.9635 42.6723 85.8359L40.101 84.6548C39.2761 84.2758 39.2761 83.1035 40.101 82.7245L42.6723 81.5434C42.9501 81.4158 43.1594 81.1747 43.2468 80.8817L43.9822 78.4145Z" fill="#FFC773"/>
<defs>
<clipPath id="clip0_1983_45156">
<rect width="142.675" height="87.0599" fill="white" transform="translate(22.0627 178.861) rotate(-4.70948)"/>
</clipPath>
</defs>
</svg>
