<svg width="108" height="139" viewBox="0 0 108 139" fill="none" xmlns="http://www.w3.org/2000/svg">
<g clip-path="url(#clip0_2022_48360)">
<rect width="108" height="140" transform="translate(0.25 -1)" fill="white"/>
<path d="M7 123.315L7 80.2979L38.2855 67L38.2855 110.018L7 123.315Z" fill="#F6F8FB"/>
<path d="M69.5708 123.315L69.5708 80.2979L100.856 67L100.856 110.018L69.5708 123.315Z" fill="#F6F8FB"/>
<path d="M69.5708 123.315L69.5708 80.2979L38.2853 67L38.2853 110.018L69.5708 123.315Z" fill="#EDF0F5"/>
<path d="M47.2331 80.9822C47.2331 85.7477 41.1503 93.0311 37.5608 96.9142C36.1601 98.4295 33.826 98.4295 32.4253 96.9142C28.8359 93.0311 22.7531 85.7477 22.7531 80.9822C22.7531 74.2222 28.2331 68.7422 34.9931 68.7422C41.753 68.7422 47.2331 74.2222 47.2331 80.9822Z" fill="#272F3E"/>
<circle cx="35.2188" cy="79.8494" r="3.85334" fill="white"/>
<g clip-path="url(#clip1_2022_48360)">
<path fill-rule="evenodd" clip-rule="evenodd" d="M77.5192 50.6348C87.6067 37.9492 87.3886 24.3244 84.5348 15.0029C84.0195 13.3198 81.6862 13.8807 81.4606 15.6263C79.8676 27.9557 71.4443 37.8044 64.636 42.5492L55.6829 36.9302C53.2161 35.382 50.1088 37.5892 50.7584 40.4283L56.5081 65.5585C56.9108 67.3185 58.664 68.4188 60.424 68.0161L85.5543 62.2664C88.3934 61.6168 89.0298 57.8589 86.563 56.3107L77.5192 50.6348Z" fill="#2CD0BC"/>
</g>
</g>
<defs>
<clipPath id="clip0_2022_48360">
<rect width="108" height="140" fill="white" transform="translate(0.25 -1)"/>
</clipPath>
<clipPath id="clip1_2022_48360">
<rect width="65.382" height="65.382" fill="white" transform="matrix(-0.921155 0.389196 0.389196 0.921155 88.9766 2)"/>
</clipPath>
</defs>
</svg>
