<svg width="160" height="160" viewBox="0 0 160 160" fill="none" xmlns="http://www.w3.org/2000/svg">
<rect width="160" height="160" fill="white"/>
<rect x="33" y="29" width="86.9707" height="101.466" rx="8.11364" fill="#F6F8FB"/>
<path d="M53.8623 46.3867H99.001" stroke="#EDF0F5" stroke-width="4.77024" stroke-linecap="round"/>
<path d="M53.8623 60.3252H99.001" stroke="#EDF0F5" stroke-width="4.77024" stroke-linecap="round"/>
<path d="M53.8623 74.6357H99.001" stroke="#EDF0F5" stroke-width="4.77024" stroke-linecap="round"/>
<path d="M122.56 71.4355L133.707 82.5821L104.602 111.687C104.2 112.089 103.678 112.35 103.115 112.43L94.4459 113.669C92.712 113.916 91.2258 112.43 91.4735 110.696L92.712 102.027C92.7924 101.464 93.0532 100.942 93.4551 100.54L122.56 71.4355Z" fill="#E5E7EB"/>
<path d="M128.119 65.8617C129.145 64.8357 130.808 64.8357 131.834 65.8617L139.265 73.2927C140.291 74.3187 140.291 75.9822 139.265 77.0082L135.55 80.7238L124.403 69.5772L128.119 65.8617Z" fill="#E5E7EB"/>
</svg>
