<svg width="107" height="115" viewBox="0 0 107 115" fill="none" xmlns="http://www.w3.org/2000/svg">
<rect width="86.9707" height="101.466" rx="8.11364" fill="#F6F8FB"/>
<path d="M20.8622 17.3867H66.0009" stroke="#EDF0F5" stroke-width="4.77024" stroke-linecap="round"/>
<path d="M20.8622 31.3262H66.0009" stroke="#EDF0F5" stroke-width="4.77024" stroke-linecap="round"/>
<path d="M20.8622 45.6348H66.0009" stroke="#EDF0F5" stroke-width="4.77024" stroke-linecap="round"/>
<circle cx="76.8314" cy="84.8313" r="26.4509" transform="rotate(-7.8899 76.8314 84.8313)" fill="#E5E7EB"/>
<path d="M74.4534 98.1812C74.4367 97.5777 74.6519 96.9907 75.0547 96.541C75.2734 96.3074 75.5412 96.1253 75.8388 96.0079C76.1365 95.8904 76.4565 95.8405 76.7757 95.8618C77.101 95.8405 77.4271 95.8905 77.7311 96.0081C78.0351 96.1258 78.3098 96.3084 78.536 96.5432C78.9382 96.9935 79.1526 97.5807 79.1351 98.1842C79.1477 98.4923 79.0942 98.7995 78.9782 99.0851C78.8622 99.3708 78.6865 99.6284 78.4627 99.8405C78.2389 100.053 77.9724 100.214 77.6809 100.315C77.3894 100.416 77.0798 100.453 76.7728 100.424C76.4564 100.452 76.1375 100.41 75.8397 100.299C75.542 100.188 75.273 100.011 75.0526 99.7822C74.851 99.5688 74.6941 99.3172 74.5912 99.0422C74.4883 98.7673 74.4415 98.4745 74.4534 98.1812Z" fill="white"/>
<path d="M69.0111 78.2165C69.0077 77.2158 69.2133 76.2255 69.6148 75.3088C70.0163 74.3922 70.6048 73.5696 71.3427 72.8936C72.0805 72.2176 72.9514 71.7032 73.8996 71.3833C74.8478 71.0634 75.8524 70.945 76.849 71.0359C78.198 70.9102 79.5548 71.1752 80.7574 71.7993C81.96 72.4235 82.9577 73.3804 83.6314 74.5559C84.1463 75.603 84.4265 76.7498 84.4524 77.9164C84.4783 79.0829 84.2493 80.241 83.7813 81.3099C82.8855 83.7148 80.2632 85.1318 76.7465 86.7024L76.744 90.5573" stroke="white" stroke-width="4.5" stroke-linecap="round" stroke-linejoin="round"/>
</svg>
