<svg width="108" height="139" viewBox="0 0 108 139" fill="none" xmlns="http://www.w3.org/2000/svg">
<rect width="108" height="140" transform="translate(0.25 -1)" fill="white"/>
<path d="M7 105.573L7 62.5557L38.2855 49.2578L38.2855 92.2754L7 105.573Z" fill="#F6F8FB"/>
<path d="M69.5709 105.573L69.5709 62.5557L100.856 49.2578L100.856 92.2754L69.5709 105.573Z" fill="#F6F8FB"/>
<path d="M69.5709 105.573L69.5709 62.5557L38.2854 49.2578L38.2854 92.2754L69.5709 105.573Z" fill="#EDF0F5"/>
<path d="M83.4859 42.3188C83.4859 50.2297 73.3882 62.3204 67.4297 68.7664C65.1044 71.2819 61.2298 71.2819 58.9045 68.7664C52.9459 62.3204 42.8483 50.2297 42.8483 42.3188C42.8483 31.097 51.9453 22 63.1671 22C74.3888 22 83.4859 31.097 83.4859 42.3188Z" fill="#E5E7EB"/>
<circle cx="63.5436" cy="40.4377" r="6.39666" fill="white"/>
<path fill-rule="evenodd" clip-rule="evenodd" d="M31.2957 89.3468C22.0932 94.1917 18.7008 102.251 17.9683 108.463C17.836 109.585 19.3516 109.859 19.9352 108.892C24.0566 102.062 31.5482 98.4534 36.7736 97.4252L40.5796 103.038C41.6285 104.585 44.0241 104.091 44.3762 102.256L47.493 86.0082C47.7112 84.8704 46.9658 83.771 45.8279 83.5527L29.5804 80.4359C27.7448 80.0838 26.3998 82.1268 27.4488 83.6737L31.2957 89.3468Z" fill="#E5E7EB"/>
</svg>
