<svg width="160" height="160" viewBox="0 0 160 160" fill="none" xmlns="http://www.w3.org/2000/svg">
<g clip-path="url(#clip0_2022_48548)">
<path d="M113.09 30.69C111.24 29.02 108.8 28 106.12 28H62.3199C59.5599 28 57.0499 29.08 55.1899 30.84L84.0699 59.72L113.09 30.69Z" fill="#F6F8FB"/>
<path d="M116.22 91.8699H116.55V38.4199C116.55 35.3499 115.21 32.5899 113.1 30.6899L84.0698 59.7199L116.22 91.8699Z" fill="#EDF0F5"/>
<path d="M51.8899 38.4198V91.8698H51.8999L84.0599 59.7198L55.1799 30.8398C53.1599 32.7398 51.8899 35.4298 51.8899 38.4198Z" fill="#EDF0F5"/>
<path d="M51.9099 91.8702H116.22L84.0599 59.7202L51.9099 91.8702Z" fill="#EDF0F5"/>
<path d="M84.3399 59.9399L115.51 90.7299L66.2399 139.4C62.1499 143.45 55.5099 143.45 51.4099 139.4L35.0699 123.26C30.9799 119.22 30.9799 112.66 35.0699 108.61L84.3399 59.9399Z" fill="#F6F8FB"/>
<path d="M115.39 90.4199L84.22 121.21L94.36 131.23C98.45 135.28 105.09 135.28 109.19 131.23L125.53 115.09C129.63 111.05 129.63 104.49 125.53 100.44L115.39 90.4199Z" fill="#EDF0F5"/>
</g>
<defs>
<clipPath id="clip0_2022_48548">
<rect width="96.6" height="114.44" fill="white" transform="translate(32 28)"/>
</clipPath>
</defs>
</svg>
